<?xml version="1.0" encoding="utf-8"?>
<!-- Generator: Adobe Illustrator 27.5.0, SVG Export Plug-In . SVG Version: 6.00 Build 0)  -->
<svg version="1.1" id="Layer_1" xmlns="http://www.w3.org/2000/svg" xmlns:xlink="http://www.w3.org/1999/xlink" x="0px" y="0px"
	 viewBox="0 0 221 191.8" style="enable-background:new 0 0 221 191.8;" xml:space="preserve">
<style type="text/css">
	.st0{clip-path:url(#SVGID_00000091013828751376518980000016415328456514230426_);}
	.st1{clip-path:url(#SVGID_00000010310114690109166030000011414109179258692529_);}
	.st2{clip-path:url(#SVGID_00000146459504220381348300000014047896042989741953_);}
	.st3{clip-path:url(#SVGID_00000052823453380415815090000006030718038360514234_);}
	.st4{clip-path:url(#SVGID_00000158717773995412240560000008477568806266493592_);}
	.st5{clip-path:url(#SVGID_00000042733086748668060370000015518048941272015017_);}
	.st6{clip-path:url(#SVGID_00000151510592661112762620000010615095808509869467_);}
	.st7{clip-path:url(#SVGID_00000129917324367897072320000001341252942377231786_);}
	.st8{clip-path:url(#SVGID_00000070803621037219941530000015782834029640494996_);}
	.st9{clip-path:url(#SVGID_00000008859886003019061590000014807487504347147921_);}
</style>
<g>
	<g>
		<g>
			<defs>
				<rect id="SVGID_1_" x="-13.3" y="-20.5" width="465" height="300"/>
			</defs>
			<clipPath id="SVGID_00000134222185987618567410000012846707645362385804_">
				<use xlink:href="#SVGID_1_"  style="overflow:visible;"/>
			</clipPath>
			<path style="clip-path:url(#SVGID_00000134222185987618567410000012846707645362385804_);" d="M42.4,109.8
				c-1.5,2.4-3.4,4.3-5.6,5.6c-2.2,1.3-4.9,1.9-7.5,1.9c-1.7,0-3.6-0.4-5.2-0.9c-1.7-0.6-3.2-1.3-4.7-2.4l3.4-7.9
				c2.1,1.5,4.1,2.1,6,2.1c1.7,0,3-0.6,4.1-1.7c1.1-1.1,1.5-2.6,1.5-4.9V51.9h10.1v48.9C44.5,104.3,43.9,107.3,42.4,109.8
				 M43.9,33.8c1.1,1.1,1.9,2.6,1.9,4.5c0,1.7-0.6,3.2-1.9,4.5c-1.1,1.1-2.6,1.9-4.5,1.9c-1.7,0-3.2-0.6-4.5-1.9
				c-1.1-1.1-1.9-2.6-1.9-4.5c0-1.9,0.6-3.4,1.9-4.5c1.1-1.1,2.6-1.7,4.5-1.7S42.8,32.7,43.9,33.8"/>
		</g>
	</g>
	<g>
		<g>
			<defs>
				<rect id="SVGID_00000028286612301589667970000013225008861487277497_" x="-13.3" y="-20.5" width="465" height="300"/>
			</defs>
			<clipPath id="SVGID_00000173140434007509958750000007078923294335360405_">
				<use xlink:href="#SVGID_00000028286612301589667970000013225008861487277497_"  style="overflow:visible;"/>
			</clipPath>
			<path style="clip-path:url(#SVGID_00000173140434007509958750000007078923294335360405_);" d="M93.2,54.5
				c3.8,2.1,6.7,4.9,8.8,8.4c2.1,3.6,3.2,7.9,3.2,12.6c0,4.7-1.1,8.8-3.2,12.6c-2.1,3.8-5.1,6.6-8.8,8.4c-3.8,2.1-8.1,3-12.9,3
				s-9.2-0.9-12.9-3s-6.8-4.9-8.8-8.4c-2.1-3.8-3.2-7.9-3.2-12.6c0-4.7,1.1-9,3.2-12.6c2.1-3.6,5.1-6.4,8.8-8.4s8.1-3,12.9-3
				S89.5,52.6,93.2,54.5 M70,64.6c-2.6,2.8-4.1,6.6-4.1,11.1S67.2,84,70,86.9c2.6,2.8,6.2,4.3,10.5,4.3s7.7-1.5,10.5-4.3
				c2.6-2.8,4.1-6.6,4.1-11.2c0-4.5-1.3-8.3-4.1-11.1c-2.6-2.8-6.2-4.3-10.3-4.3C76.2,60.3,72.6,61.8,70,64.6"/>
		</g>
	</g>
	<g>
		<g>
			<defs>
				<rect id="SVGID_00000179645922671589188770000007445880379068513723_" x="-13.3" y="-20.5" width="465" height="300"/>
			</defs>
			<clipPath id="SVGID_00000132049031496225108490000016127765374996204207_">
				<use xlink:href="#SVGID_00000179645922671589188770000007445880379068513723_"  style="overflow:visible;"/>
			</clipPath>
			<path style="clip-path:url(#SVGID_00000132049031496225108490000016127765374996204207_);" d="M123.8,109.8
				c-1.5,2.4-3.4,4.3-5.6,5.6c-2.2,1.3-4.9,1.9-7.5,1.9c-1.7,0-3.6-0.4-5.2-0.9c-1.7-0.6-3.2-1.3-4.7-2.4l3.4-7.9
				c2.1,1.5,4.1,2.1,6,2.1c1.7,0,3-0.6,4.1-1.7c1.1-1.1,1.5-2.6,1.5-4.9V51.9h10.1v48.9C125.9,104.3,125.1,107.3,123.8,109.8
				 M122.1,126.3c1.1,1.1,1.9,2.6,1.9,4.5c0,1.7-0.6,3.2-1.9,4.5c-1.1,1.1-2.6,1.9-4.5,1.9c-1.7,0-3.2-0.6-4.5-1.9
				c-1.1-1.1-1.9-2.6-1.9-4.5c0-1.9,0.6-3.4,1.9-4.5c1.1-1.1,2.6-1.7,4.5-1.7S121,125.1,122.1,126.3"/>
		</g>
	</g>
	<g>
		<g>
			<defs>
				<rect id="SVGID_00000125570360918234984960000013753019079342297274_" x="-13.3" y="-20.5" width="465" height="300"/>
			</defs>
			<clipPath id="SVGID_00000003810214928230238580000012136996277018669204_">
				<use xlink:href="#SVGID_00000125570360918234984960000013753019079342297274_"  style="overflow:visible;"/>
			</clipPath>
			<path style="clip-path:url(#SVGID_00000003810214928230238580000012136996277018669204_);" d="M174.6,54.5
				c3.8,2.1,6.8,4.9,8.8,8.4c2,3.5,3.2,7.9,3.2,12.6c0,4.7-1.1,8.8-3.2,12.6c-2.1,3.8-5.1,6.6-8.8,8.4c-3.8,2.1-8.1,3-12.9,3
				s-9.2-0.9-12.9-3s-6.8-4.9-8.8-8.4c-2.1-3.8-3.2-7.9-3.2-12.6c0-4.7,1.1-9,3.2-12.6c2.1-3.6,5.1-6.4,8.8-8.4s8.1-3,12.9-3
				C166.6,51.5,170.9,52.6,174.6,54.5 M151.4,64.6c-2.6,2.8-4.1,6.6-4.1,11.1s1.3,8.3,4.1,11.2c2.6,2.8,6.2,4.3,10.5,4.3
				s7.7-1.5,10.5-4.3c2.6-2.8,3.9-6.6,3.9-11.2c0-4.5-1.3-8.3-4.1-11.1c-2.6-2.8-6.2-4.3-10.3-4.3C157.6,60.3,154,61.8,151.4,64.6"
				/>
		</g>
	</g>
	<g>
		<g>
			<defs>
				<rect id="SVGID_00000099657740403107138230000015388762033403910054_" x="-13.3" y="-20.5" width="465" height="300"/>
			</defs>
			<clipPath id="SVGID_00000133507687231330679250000000362097939347162757_">
				<use xlink:href="#SVGID_00000099657740403107138230000015388762033403910054_"  style="overflow:visible;"/>
			</clipPath>
			<path style="clip-path:url(#SVGID_00000133507687231330679250000000362097939347162757_);" d="M118.7,157.8
				c-27.8,0-49.7-22.1-50.6-23.1L75,128c0.2,0.2,21.4,21.6,46.1,20.2c13.7-0.8,26.4-8.4,37.5-22.9l7.5,5.8
				c-12.8,16.7-27.8,25.7-44.4,26.6C120.6,157.8,119.7,157.8,118.7,157.8"/>
		</g>
	</g>
</g>
<g>
	<g>
		<g>
			<defs>
				<rect id="SVGID_00000080196719758493305200000011153000138359182260_" x="347.7" y="67" width="48.2" height="31.1"/>
			</defs>
			<clipPath id="SVGID_00000080887378585516700140000018160253046379033530_">
				<use xlink:href="#SVGID_00000080196719758493305200000011153000138359182260_"  style="overflow:visible;"/>
			</clipPath>
			<path style="clip-path:url(#SVGID_00000080887378585516700140000018160253046379033530_);" d="M353.4,80.5
				c-0.2,0.3-0.3,0.4-0.6,0.6c-0.2,0.1-0.5,0.2-0.8,0.2c-0.2,0-0.4,0-0.5-0.1c-0.2-0.1-0.3-0.1-0.5-0.3l0.3-0.8
				c0.2,0.2,0.4,0.2,0.6,0.2c0.2,0,0.3-0.1,0.4-0.2c0.1-0.1,0.2-0.3,0.2-0.5v-5.1h1v5.1C353.6,80,353.6,80.3,353.4,80.5 M353.6,72.7
				c0.1,0.1,0.2,0.3,0.2,0.5c0,0.2-0.1,0.3-0.2,0.5c-0.1,0.1-0.3,0.2-0.5,0.2c-0.2,0-0.3-0.1-0.5-0.2c-0.1-0.2-0.1-0.4-0.1-0.6
				s0.1-0.3,0.2-0.5c0.1,0,0.2-0.1,0.4-0.1C353.3,72.5,353.5,72.6,353.6,72.7"/>
		</g>
	</g>
	<g>
		<g>
			<defs>
				<rect id="SVGID_00000029030941247476501220000007198817557176870536_" x="347.7" y="67" width="48.2" height="31.1"/>
			</defs>
			<clipPath id="SVGID_00000069370250324300425640000011205417247024794763_">
				<use xlink:href="#SVGID_00000029030941247476501220000007198817557176870536_"  style="overflow:visible;"/>
			</clipPath>
			<path style="clip-path:url(#SVGID_00000069370250324300425640000011205417247024794763_);" d="M358.7,74.8
				c0.4,0.2,0.7,0.5,0.9,0.9c0.2,0.4,0.3,0.8,0.3,1.3s-0.1,0.9-0.3,1.3c-0.2,0.4-0.5,0.7-0.9,0.9c-0.4,0.2-0.8,0.3-1.3,0.3
				s-1-0.1-1.3-0.3c-0.4-0.2-0.7-0.5-0.9-0.9c-0.2-0.4-0.3-0.8-0.3-1.3s0.1-0.9,0.3-1.3c0.2-0.4,0.5-0.7,0.9-0.9
				c0.4-0.2,0.8-0.3,1.3-0.3S358.3,74.6,358.7,74.8 M356.3,75.9c-0.3,0.3-0.4,0.7-0.4,1.1c0,0.5,0.1,0.9,0.4,1.2
				c0.3,0.3,0.6,0.4,1.1,0.4c0.4,0,0.8-0.2,1.1-0.4c0.3-0.3,0.4-0.7,0.4-1.2s-0.1-0.9-0.4-1.1c-0.3-0.3-0.6-0.4-1.1-0.4
				C356.9,75.4,356.6,75.6,356.3,75.9"/>
		</g>
	</g>
	<g>
		<g>
			<defs>
				<rect id="SVGID_00000146494983397220598460000002515709621774398100_" x="347.7" y="67" width="48.2" height="31.1"/>
			</defs>
			<clipPath id="SVGID_00000105390274211592679690000004430726526563110584_">
				<use xlink:href="#SVGID_00000146494983397220598460000002515709621774398100_"  style="overflow:visible;"/>
			</clipPath>
			<path style="clip-path:url(#SVGID_00000105390274211592679690000004430726526563110584_);" d="M361.9,80.5
				c-0.2,0.3-0.3,0.4-0.6,0.6c-0.2,0.1-0.5,0.2-0.8,0.2c-0.2,0-0.4,0-0.5-0.1c-0.2-0.1-0.3-0.1-0.5-0.3l0.3-0.8
				c0.2,0.2,0.4,0.2,0.6,0.2c0.2,0,0.3-0.1,0.4-0.2c0.1-0.1,0.2-0.3,0.2-0.5v-5.1h1v5.1C362.1,80,362,80.3,361.9,80.5 M361.7,82.3
				c0.1,0.1,0.2,0.3,0.2,0.5c0,0.2-0.1,0.3-0.2,0.5c-0.1,0.1-0.3,0.2-0.5,0.2c-0.2,0-0.3-0.1-0.5-0.2c-0.1-0.1-0.2-0.3-0.2-0.5
				c0-0.2,0.1-0.3,0.2-0.5c0.1-0.1,0.3-0.2,0.5-0.2C361.4,82.1,361.6,82.1,361.7,82.3"/>
		</g>
	</g>
	<g>
		<g>
			<defs>
				<rect id="SVGID_00000018203872600878488600000006948145791473337522_" x="347.7" y="67" width="48.2" height="31.1"/>
			</defs>
			<clipPath id="SVGID_00000157268238359901403300000004114303239358256570_">
				<use xlink:href="#SVGID_00000018203872600878488600000006948145791473337522_"  style="overflow:visible;"/>
			</clipPath>
			<path style="clip-path:url(#SVGID_00000157268238359901403300000004114303239358256570_);" d="M367.1,74.8
				c0.4,0.2,0.7,0.5,0.9,0.9c0.2,0.4,0.3,0.8,0.3,1.3s-0.1,0.9-0.3,1.3c-0.2,0.4-0.5,0.7-0.9,0.9c-0.4,0.2-0.8,0.3-1.3,0.3
				s-1-0.1-1.3-0.3c-0.4-0.2-0.7-0.5-0.9-0.9c-0.2-0.4-0.3-0.8-0.3-1.3s0.1-0.9,0.3-1.3c0.2-0.4,0.5-0.7,0.9-0.9
				c0.4-0.2,0.8-0.3,1.3-0.3S366.7,74.6,367.1,74.8 M364.7,75.9c-0.3,0.3-0.4,0.7-0.4,1.1c0,0.5,0.1,0.9,0.4,1.2
				c0.3,0.3,0.6,0.4,1.1,0.4c0.4,0,0.8-0.2,1.1-0.4c0.3-0.3,0.4-0.7,0.4-1.2s-0.1-0.9-0.4-1.1c-0.3-0.3-0.6-0.4-1.1-0.4
				C365.4,75.4,365,75.6,364.7,75.9"/>
		</g>
	</g>
	<g>
		<g>
			<defs>
				<rect id="SVGID_00000160148176589150933280000000903628571204639379_" x="347.7" y="67" width="48.2" height="31.1"/>
			</defs>
			<clipPath id="SVGID_00000166655888966464585110000000866309407197608864_">
				<use xlink:href="#SVGID_00000160148176589150933280000000903628571204639379_"  style="overflow:visible;"/>
			</clipPath>
			<path style="clip-path:url(#SVGID_00000166655888966464585110000000866309407197608864_);" d="M361.3,85.5
				c-2.9,0-5.1-2.3-5.2-2.4l0.7-0.7c0,0,2.2,2.2,4.8,2.1c1.4-0.1,2.7-0.9,3.9-2.4l0.8,0.6c-1.3,1.7-2.9,2.7-4.6,2.8
				C361.5,85.5,361.4,85.5,361.3,85.5"/>
		</g>
	</g>
</g>
</svg>
