<?xml version="1.0" encoding="utf-8"?>
<!-- Generator: Adobe Illustrator 26.0.0, SVG Export Plug-In . SVG Version: 6.00 Build 0)  -->
<svg version="1.1" id="Layer_1" xmlns="http://www.w3.org/2000/svg" xmlns:xlink="http://www.w3.org/1999/xlink" x="0px" y="0px"
	 viewBox="0 0 32 32" style="enable-background:new 0 0 32 32;" xml:space="preserve">
<style type="text/css">
	.st0{clip-path:url(#SVGID_00000172399528687194450400000005263544794838668478_);}
	.st1{clip-path:url(#SVGID_00000145027827645675864410000015379015871625086595_);}
	.st2{clip-path:url(#SVGID_00000124877801578414376810000016453392131560588183_);}
	.st3{clip-path:url(#SVGID_00000151525757914192127580000006642451519043409585_);}
	.st4{clip-path:url(#SVGID_00000176035459003025228350000001453800116541478538_);}
	.st5{clip-path:url(#SVGID_00000167389410351619751440000005863129684730280879_);}
	.st6{clip-path:url(#SVGID_00000124122483371952887740000006164474079938340257_);}
	.st7{clip-path:url(#SVGID_00000093147210349775869710000000847601628815318457_);}
	.st8{clip-path:url(#SVGID_00000038400907406280631970000007612188166358540418_);}
	.st9{clip-path:url(#SVGID_00000106140879813851628810000011051666906792276886_);}
</style>
<g>
	<g>
		<defs>
			<rect id="SVGID_1_" x="-357.8" y="-83.1" width="465" height="300"/>
		</defs>
		<clipPath id="SVGID_00000073699219670503717840000006451345368670620087_">
			<use xlink:href="#SVGID_1_"  style="overflow:visible;"/>
		</clipPath>
		<path style="clip-path:url(#SVGID_00000073699219670503717840000006451345368670620087_);" d="M-302.1,47.2
			c-1.5,2.4-3.4,4.3-5.6,5.6c-2.2,1.3-4.9,1.9-7.5,1.9c-1.7,0-3.6-0.4-5.2-0.9c-1.7-0.6-3.2-1.3-4.7-2.4l3.4-7.9
			c2.1,1.5,4.1,2.1,6,2.1c1.7,0,3-0.6,4.1-1.7c1.1-1.1,1.5-2.6,1.5-4.9v-49.7h10.1v48.9C-300,41.7-300.6,44.7-302.1,47.2
			 M-300.6-28.8c1.1,1.1,1.9,2.6,1.9,4.5c0,1.7-0.6,3.2-1.9,4.5c-1.1,1.1-2.6,1.9-4.5,1.9c-1.7,0-3.2-0.6-4.5-1.9
			c-1.1-1.1-1.9-2.6-1.9-4.5c0-1.9,0.6-3.4,1.9-4.5c1.1-1.1,2.6-1.7,4.5-1.7S-301.7-29.9-300.6-28.8"/>
	</g>
	<g>
		<defs>
			<rect id="SVGID_00000096032890527682581790000014976785729924816810_" x="-357.8" y="-83.1" width="465" height="300"/>
		</defs>
		<clipPath id="SVGID_00000067193848153952306440000003600635086909425303_">
			<use xlink:href="#SVGID_00000096032890527682581790000014976785729924816810_"  style="overflow:visible;"/>
		</clipPath>
		<path style="clip-path:url(#SVGID_00000067193848153952306440000003600635086909425303_);" d="M-251.3-8.1
			c3.8,2.1,6.7,4.9,8.8,8.4c2.1,3.6,3.2,7.9,3.2,12.6s-1.1,8.8-3.2,12.6s-5.1,6.6-8.8,8.4c-3.8,2.1-8.1,3-12.9,3s-9.2-0.9-12.9-3
			s-6.8-4.9-8.8-8.4c-2.1-3.8-3.2-7.9-3.2-12.6s1.1-9,3.2-12.6s5.1-6.4,8.8-8.4s8.1-3,12.9-3S-255-10-251.3-8.1 M-274.5,2
			c-2.6,2.8-4.1,6.6-4.1,11.1s1.3,8.3,4.1,11.2c2.6,2.8,6.2,4.3,10.5,4.3s7.7-1.5,10.5-4.3c2.6-2.8,4.1-6.6,4.1-11.2
			c0-4.5-1.3-8.3-4.1-11.1c-2.6-2.8-6.2-4.3-10.3-4.3C-268.3-2.3-271.9-0.8-274.5,2"/>
	</g>
	<g>
		<defs>
			<rect id="SVGID_00000101102975581089468890000017407063892607699630_" x="-357.8" y="-83.1" width="465" height="300"/>
		</defs>
		<clipPath id="SVGID_00000057132261142112815260000003407205475742676373_">
			<use xlink:href="#SVGID_00000101102975581089468890000017407063892607699630_"  style="overflow:visible;"/>
		</clipPath>
		<path style="clip-path:url(#SVGID_00000057132261142112815260000003407205475742676373_);" d="M-220.7,47.2
			c-1.5,2.4-3.4,4.3-5.6,5.6c-2.2,1.3-4.9,1.9-7.5,1.9c-1.7,0-3.6-0.4-5.2-0.9c-1.7-0.6-3.2-1.3-4.7-2.4l3.4-7.9
			c2.1,1.5,4.1,2.1,6,2.1c1.7,0,3-0.6,4.1-1.7c1.1-1.1,1.5-2.6,1.5-4.9v-49.7h10.1v48.9C-218.6,41.7-219.4,44.7-220.7,47.2
			 M-222.4,63.7c1.1,1.1,1.9,2.6,1.9,4.5c0,1.7-0.6,3.2-1.9,4.5c-1.1,1.1-2.6,1.9-4.5,1.9c-1.7,0-3.2-0.6-4.5-1.9
			c-1.1-1.1-1.9-2.6-1.9-4.5s0.6-3.4,1.9-4.5c1.1-1.1,2.6-1.7,4.5-1.7C-225,62-223.5,62.5-222.4,63.7"/>
	</g>
	<g>
		<defs>
			<rect id="SVGID_00000058584508999935929950000000832648329143121290_" x="-357.8" y="-83.1" width="465" height="300"/>
		</defs>
		<clipPath id="SVGID_00000090289666966127621880000011387697845929888156_">
			<use xlink:href="#SVGID_00000058584508999935929950000000832648329143121290_"  style="overflow:visible;"/>
		</clipPath>
		<path style="clip-path:url(#SVGID_00000090289666966127621880000011387697845929888156_);" d="M-169.9-8.1
			c3.8,2.1,6.8,4.9,8.8,8.4s3.2,7.9,3.2,12.6s-1.1,8.8-3.2,12.6s-5.1,6.6-8.8,8.4c-3.8,2.1-8.1,3-12.9,3s-9.2-0.9-12.9-3
			s-6.8-4.9-8.8-8.4c-2.1-3.8-3.2-7.9-3.2-12.6s1.1-9,3.2-12.6c2.1-3.6,5.1-6.4,8.8-8.4s8.1-3,12.9-3
			C-177.9-11.1-173.6-10-169.9-8.1 M-193.1,2c-2.6,2.8-4.1,6.6-4.1,11.1s1.3,8.3,4.1,11.2c2.6,2.8,6.2,4.3,10.5,4.3
			s7.7-1.5,10.5-4.3c2.6-2.8,3.9-6.6,3.9-11.2c0-4.5-1.3-8.3-4.1-11.1c-2.6-2.8-6.2-4.3-10.3-4.3C-186.9-2.3-190.5-0.8-193.1,2"/>
	</g>
	<g>
		<defs>
			<rect id="SVGID_00000042715328851894265290000002333082630481331596_" x="-357.8" y="-83.1" width="465" height="300"/>
		</defs>
		<clipPath id="SVGID_00000052797595379309549560000012523194272831373452_">
			<use xlink:href="#SVGID_00000042715328851894265290000002333082630481331596_"  style="overflow:visible;"/>
		</clipPath>
		<path style="clip-path:url(#SVGID_00000052797595379309549560000012523194272831373452_);" d="M-225.8,95.2
			c-27.8,0-49.7-22.1-50.6-23.1l6.9-6.7c0.2,0.2,21.4,21.6,46.1,20.2c13.7-0.8,26.4-8.4,37.5-22.9l7.5,5.8
			c-12.8,16.7-27.8,25.7-44.4,26.6C-223.9,95.2-224.8,95.2-225.8,95.2"/>
	</g>
</g>
<g>
	<g>
		<defs>
			<rect id="SVGID_00000044858637626219344340000012974804034892197818_" x="3.2" y="4.4" width="48.2" height="31.1"/>
		</defs>
		<clipPath id="SVGID_00000156547259223538692860000004828852790509175227_">
			<use xlink:href="#SVGID_00000044858637626219344340000012974804034892197818_"  style="overflow:visible;"/>
		</clipPath>
		<path style="clip-path:url(#SVGID_00000156547259223538692860000004828852790509175227_);" d="M8.9,17.9c-0.2,0.3-0.3,0.4-0.6,0.6
			c-0.2,0.1-0.5,0.2-0.8,0.2c-0.2,0-0.4,0-0.5-0.1c-0.2-0.1-0.3-0.1-0.5-0.3l0.3-0.8c0.2,0.2,0.4,0.2,0.6,0.2c0.2,0,0.3-0.1,0.4-0.2
			c0.1-0.1,0.2-0.3,0.2-0.5v-5.1h1V17C9.1,17.4,9.1,17.7,8.9,17.9 M9.1,10.1c0.1,0.1,0.2,0.3,0.2,0.5c0,0.2-0.1,0.3-0.2,0.5
			c-0.1,0.1-0.3,0.2-0.5,0.2c-0.2,0-0.3-0.1-0.5-0.2C8,10.9,8,10.7,8,10.5s0.1-0.3,0.2-0.5C8.3,10,8.4,9.9,8.6,9.9S9,10,9.1,10.1"/>
	</g>
	<g>
		<defs>
			<rect id="SVGID_00000051381000098761316740000013503039263516605849_" x="3.2" y="4.4" width="48.2" height="31.1"/>
		</defs>
		<clipPath id="SVGID_00000183941011332765191680000004523463984069711798_">
			<use xlink:href="#SVGID_00000051381000098761316740000013503039263516605849_"  style="overflow:visible;"/>
		</clipPath>
		<path style="clip-path:url(#SVGID_00000183941011332765191680000004523463984069711798_);" d="M14.2,12.2c0.4,0.2,0.7,0.5,0.9,0.9
			c0.2,0.4,0.3,0.8,0.3,1.3c0,0.5-0.1,0.9-0.3,1.3s-0.5,0.7-0.9,0.9c-0.4,0.2-0.8,0.3-1.3,0.3s-1-0.1-1.3-0.3
			c-0.4-0.2-0.7-0.5-0.9-0.9c-0.2-0.4-0.3-0.8-0.3-1.3c0-0.5,0.1-0.9,0.3-1.3c0.2-0.4,0.5-0.7,0.9-0.9s0.8-0.3,1.3-0.3
			S13.8,12,14.2,12.2 M11.8,13.3c-0.3,0.3-0.4,0.7-0.4,1.1c0,0.5,0.1,0.9,0.4,1.2c0.3,0.3,0.6,0.4,1.1,0.4c0.4,0,0.8-0.2,1.1-0.4
			c0.3-0.3,0.4-0.7,0.4-1.2c0-0.5-0.1-0.9-0.4-1.1c-0.3-0.3-0.6-0.4-1.1-0.4C12.4,12.8,12.1,13,11.8,13.3"/>
	</g>
	<g>
		<defs>
			<rect id="SVGID_00000041293150639130077410000011027865427213206159_" x="3.2" y="4.4" width="48.2" height="31.1"/>
		</defs>
		<clipPath id="SVGID_00000137097902496068347760000015166474844204196003_">
			<use xlink:href="#SVGID_00000041293150639130077410000011027865427213206159_"  style="overflow:visible;"/>
		</clipPath>
		<path style="clip-path:url(#SVGID_00000137097902496068347760000015166474844204196003_);" d="M17.4,17.9
			c-0.2,0.3-0.3,0.4-0.6,0.6c-0.2,0.1-0.5,0.2-0.8,0.2c-0.2,0-0.4,0-0.5-0.1c-0.2-0.1-0.3-0.1-0.5-0.3l0.3-0.8
			c0.2,0.2,0.4,0.2,0.6,0.2c0.2,0,0.3-0.1,0.4-0.2c0.1-0.1,0.2-0.3,0.2-0.5v-5.1h1V17C17.6,17.4,17.5,17.7,17.4,17.9 M17.2,19.7
			c0.1,0.1,0.2,0.3,0.2,0.5c0,0.2-0.1,0.3-0.2,0.5c-0.1,0.1-0.3,0.2-0.5,0.2c-0.2,0-0.3-0.1-0.5-0.2c-0.1-0.1-0.2-0.3-0.2-0.5
			c0-0.2,0.1-0.3,0.2-0.5c0.1-0.1,0.3-0.2,0.5-0.2S17.1,19.5,17.2,19.7"/>
	</g>
	<g>
		<defs>
			<rect id="SVGID_00000002369777565032620260000013429983574009533331_" x="3.2" y="4.4" width="48.2" height="31.1"/>
		</defs>
		<clipPath id="SVGID_00000165219890771350230290000003033377681215284147_">
			<use xlink:href="#SVGID_00000002369777565032620260000013429983574009533331_"  style="overflow:visible;"/>
		</clipPath>
		<path style="clip-path:url(#SVGID_00000165219890771350230290000003033377681215284147_);" d="M22.6,12.2c0.4,0.2,0.7,0.5,0.9,0.9
			c0.2,0.4,0.3,0.8,0.3,1.3c0,0.5-0.1,0.9-0.3,1.3c-0.2,0.4-0.5,0.7-0.9,0.9c-0.4,0.2-0.8,0.3-1.3,0.3c-0.5,0-1-0.1-1.3-0.3
			c-0.4-0.2-0.7-0.5-0.9-0.9c-0.2-0.4-0.3-0.8-0.3-1.3c0-0.5,0.1-0.9,0.3-1.3c0.2-0.4,0.5-0.7,0.9-0.9s0.8-0.3,1.3-0.3
			S22.2,12,22.6,12.2 M20.2,13.3c-0.3,0.3-0.4,0.7-0.4,1.1c0,0.5,0.1,0.9,0.4,1.2c0.3,0.3,0.6,0.4,1.1,0.4c0.4,0,0.8-0.2,1.1-0.4
			c0.3-0.3,0.4-0.7,0.4-1.2c0-0.5-0.1-0.9-0.4-1.1c-0.3-0.3-0.6-0.4-1.1-0.4C20.9,12.8,20.5,13,20.2,13.3"/>
	</g>
	<g>
		<defs>
			<rect id="SVGID_00000056424610895437883700000012936245638634092472_" x="3.2" y="4.4" width="48.2" height="31.1"/>
		</defs>
		<clipPath id="SVGID_00000128449890346337229640000010359081366484869547_">
			<use xlink:href="#SVGID_00000056424610895437883700000012936245638634092472_"  style="overflow:visible;"/>
		</clipPath>
		<path style="clip-path:url(#SVGID_00000128449890346337229640000010359081366484869547_);" d="M16.8,22.9c-2.9,0-5.1-2.3-5.2-2.4
			l0.7-0.7c0,0,2.2,2.2,4.8,2.1c1.4-0.1,2.7-0.9,3.9-2.4l0.8,0.6c-1.3,1.7-2.9,2.7-4.6,2.8C17,22.9,16.9,22.9,16.8,22.9"/>
	</g>
</g>
</svg>
